<svg xmlns="http://www.w3.org/2000/svg" xmlns:xlink="http://www.w3.org/1999/xlink" width="100" zoomAndPan="magnify" viewBox="0 0 75 74.999997" height="100" preserveAspectRatio="xMidYMid meet" version="1.0"><defs><clipPath id="653124614d"><path d="M 20 11.75 L 33 11.75 L 33 17 L 20 17 Z M 20 11.75 " clip-rule="nonzero"/></clipPath><clipPath id="0df68fc6be"><path d="M 6.980469 48 L 48 48 L 48 63.5 L 6.980469 63.5 Z M 6.980469 48 " clip-rule="nonzero"/></clipPath><clipPath id="b6c7e0b2fe"><path d="M 57 27 L 67.730469 27 L 67.730469 36 L 57 36 Z M 57 27 " clip-rule="nonzero"/></clipPath></defs><path fill="#ffffff" d="M 18.492188 26.242188 L 18.492188 32.234375 C 18.492188 36.90625 21.339844 41.9375 26.675781 41.9375 C 31.660156 41.9375 34.746094 37.144531 34.746094 32.59375 L 34.746094 26.242188 Z M 18.492188 26.242188 " fill-opacity="1" fill-rule="evenodd"/><path fill="#ffffff" d="M 26.558594 43.734375 C 20.152344 43.734375 16.710938 37.742188 16.710938 32.234375 L 16.710938 25.285156 C 16.710938 24.804688 17.066406 24.445312 17.660156 24.445312 L 35.574219 24.445312 C 36.167969 24.445312 36.523438 24.804688 36.523438 25.285156 L 36.523438 32.59375 C 36.523438 37.984375 32.726562 43.734375 26.558594 43.734375 Z M 26.558594 43.734375 " fill-opacity="1" fill-rule="evenodd"/><path fill="#ffffff" d="M 42.929688 26.242188 L 10.304688 26.242188 C 9.710938 26.242188 9.355469 25.765625 9.355469 25.285156 L 9.355469 22.050781 C 9.355469 19.773438 11.253906 17.976562 13.390625 17.976562 L 39.726562 17.976562 C 41.984375 17.976562 43.761719 19.773438 43.761719 22.050781 L 43.761719 25.285156 C 43.878906 25.765625 43.523438 26.242188 42.929688 26.242188 Z M 42.929688 26.242188 " fill-opacity="1" fill-rule="evenodd"/><g clip-path="url(#653124614d)"><path fill="#ffffff" d="M 20.390625 16.300781 L 21.8125 12.226562 C 22.050781 11.867188 22.289062 11.75 22.644531 11.75 L 30.59375 11.75 C 30.949219 11.75 31.304688 11.867188 31.421875 12.226562 L 32.964844 16.300781 Z M 20.390625 16.300781 " fill-opacity="1" fill-rule="evenodd"/></g><g clip-path="url(#0df68fc6be)"><path fill="#ffffff" d="M 46.609375 63.5 L 39.371094 63.5 L 39.609375 48.285156 C 42.929688 49.601562 45.542969 52.238281 46.136719 55.351562 L 47.441406 62.539062 C 47.441406 62.78125 47.441406 63.019531 47.203125 63.257812 C 47.085938 63.5 46.847656 63.5 46.609375 63.5 Z M 37.59375 63.5 L 15.878906 63.5 L 16.117188 51.28125 C 16.949219 52.359375 18.132812 53.195312 19.320312 53.796875 C 21.574219 54.753906 24.1875 55.234375 26.558594 55.234375 C 29.050781 55.234375 31.660156 54.753906 33.914062 53.796875 C 35.695312 52.957031 37.238281 51.640625 37.949219 49.722656 Z M 14.101562 63.5 L 7.8125 63.5 C 7.574219 63.5 7.339844 63.5 7.21875 63.257812 C 7.101562 63.019531 6.980469 62.78125 6.980469 62.539062 L 8.285156 55.351562 C 8.878906 52.359375 11.253906 49.722656 14.457031 48.285156 Z M 14.101562 63.5 " fill-opacity="1" fill-rule="evenodd"/></g><path fill="#ffffff" d="M 26.558594 53.554688 C 20.980469 53.554688 16.828125 51.28125 16.828125 48.285156 C 16.828125 47.6875 17.183594 47.328125 17.660156 47.328125 L 19.203125 47.328125 L 20.625 43.613281 C 22.289062 44.691406 24.304688 45.410156 26.558594 45.410156 C 28.8125 45.410156 30.828125 44.691406 32.609375 43.613281 L 34.03125 47.328125 L 35.574219 47.328125 C 36.050781 47.328125 36.523438 47.6875 36.523438 48.285156 C 36.523438 51.28125 32.253906 53.554688 26.558594 53.554688 Z M 26.558594 53.554688 " fill-opacity="1" fill-rule="evenodd"/><path fill="#ffffff" d="M 53.492188 31.875 C 51.710938 31.875 49.933594 31.15625 48.625 29.957031 C 47.085938 28.28125 46.371094 25.882812 46.847656 23.609375 C 46.847656 23.25 47.203125 23.007812 47.441406 22.890625 C 49.695312 22.410156 52.066406 23.128906 53.847656 24.804688 C 55.390625 26.363281 56.101562 28.757812 55.625 31.035156 C 55.625 31.394531 55.269531 31.632812 55.035156 31.753906 C 54.441406 31.875 53.964844 31.875 53.492188 31.875 Z M 53.492188 31.875 " fill-opacity="1" fill-rule="evenodd"/><path fill="#ffffff" d="M 54.796875 54.515625 C 54.320312 54.515625 53.847656 54.15625 53.847656 53.675781 L 53.847656 30.796875 C 53.847656 30.316406 54.320312 29.957031 54.796875 29.957031 C 55.269531 29.957031 55.625 30.316406 55.625 30.796875 L 55.625 53.675781 C 55.625 54.273438 55.269531 54.515625 54.796875 54.515625 Z M 54.796875 54.515625 " fill-opacity="1" fill-rule="evenodd"/><g clip-path="url(#b6c7e0b2fe)"><path fill="#ffffff" d="M 60.964844 35.828125 C 59.777344 35.828125 58.710938 35.46875 57.644531 34.988281 C 57.40625 34.75 57.167969 34.390625 57.167969 34.148438 C 57.40625 31.753906 58.710938 29.597656 60.726562 28.519531 C 62.746094 27.441406 65.238281 27.441406 67.253906 28.519531 C 67.609375 28.757812 67.730469 29 67.730469 29.359375 C 67.609375 31.632812 66.1875 33.789062 64.167969 34.988281 C 63.21875 35.46875 62.152344 35.828125 60.964844 35.828125 Z M 60.964844 35.828125 " fill-opacity="1" fill-rule="evenodd"/></g><path fill="#ffffff" d="M 54.796875 36.90625 C 54.558594 36.90625 54.441406 36.785156 54.320312 36.785156 C 53.847656 36.425781 53.847656 35.828125 54.085938 35.585938 C 55.863281 33.191406 58 33.3125 58.117188 33.3125 C 58.59375 33.429688 58.949219 33.789062 58.949219 34.269531 C 58.832031 34.75 58.472656 35.109375 58 35.109375 C 57.882812 35.109375 56.574219 34.988281 55.390625 36.546875 C 55.269531 36.785156 55.035156 36.90625 54.796875 36.90625 Z M 54.796875 36.90625 " fill-opacity="1" fill-rule="evenodd"/><path fill="#ffffff" d="M 49.695312 41.695312 C 48.507812 41.695312 47.441406 41.335938 46.371094 40.859375 C 44.355469 39.660156 43.050781 37.625 42.929688 35.226562 C 42.929688 34.867188 43.050781 34.628906 43.289062 34.390625 C 45.304688 33.3125 47.796875 33.3125 49.933594 34.390625 C 51.949219 35.585938 53.253906 37.625 53.492188 40.019531 C 53.492188 40.257812 53.253906 40.617188 53.015625 40.859375 C 51.949219 41.335938 50.882812 41.695312 49.695312 41.695312 Z M 49.695312 41.695312 " fill-opacity="1" fill-rule="evenodd"/><path fill="#ffffff" d="M 54.796875 41.578125 C 54.675781 41.578125 54.441406 41.578125 54.320312 41.457031 C 53.371094 40.859375 52.660156 40.859375 52.660156 40.859375 C 52.1875 40.859375 51.828125 40.5 51.828125 40.019531 C 51.710938 39.539062 52.066406 39.0625 52.542969 39.0625 C 52.660156 39.0625 53.964844 39.0625 55.269531 40.019531 C 55.625 40.257812 55.746094 40.738281 55.507812 41.21875 C 55.390625 41.457031 55.035156 41.578125 54.796875 41.578125 Z M 54.796875 41.578125 " fill-opacity="1" fill-rule="evenodd"/><path fill="#ffffff" d="M 59.542969 47.445312 C 58.355469 47.445312 57.289062 47.085938 56.21875 46.609375 C 55.984375 46.488281 55.863281 46.128906 55.863281 45.769531 C 55.984375 43.492188 57.289062 41.335938 59.304688 40.257812 C 61.441406 39.0625 63.8125 39.0625 65.949219 40.257812 C 66.1875 40.378906 66.421875 40.738281 66.304688 40.976562 C 66.1875 43.375 64.882812 45.53125 62.863281 46.609375 C 61.796875 47.085938 60.609375 47.445312 59.542969 47.445312 Z M 59.542969 47.445312 " fill-opacity="1" fill-rule="evenodd"/><path fill="#ffffff" d="M 54.796875 47.207031 C 54.441406 47.207031 54.203125 47.085938 54.085938 46.847656 C 53.847656 46.488281 53.964844 45.890625 54.320312 45.648438 C 55.507812 44.929688 56.574219 44.929688 56.8125 45.050781 C 57.289062 45.050781 57.644531 45.410156 57.523438 45.890625 C 57.523438 46.488281 57.050781 46.847656 56.574219 46.726562 C 56.574219 46.726562 55.984375 46.726562 55.269531 47.085938 C 55.035156 47.207031 54.914062 47.207031 54.796875 47.207031 Z M 54.796875 47.207031 " fill-opacity="1" fill-rule="evenodd"/></svg>