<svg xmlns="http://www.w3.org/2000/svg" xmlns:xlink="http://www.w3.org/1999/xlink" width="100" zoomAndPan="magnify" viewBox="0 0 75 74.999997" height="100" preserveAspectRatio="xMidYMid meet" version="1.0"><defs><clipPath id="d5245219c8"><path d="M 35 7.609375 L 40 7.609375 L 40 30 L 35 30 Z M 35 7.609375 " clip-rule="nonzero"/></clipPath><clipPath id="2c796c84a4"><path d="M 9 42 L 66 42 L 66 67.609375 L 9 67.609375 Z M 9 42 " clip-rule="nonzero"/></clipPath><clipPath id="87c916440e"><path d="M 7.5 36 L 67.5 36 L 67.5 40 L 7.5 40 Z M 7.5 36 " clip-rule="nonzero"/></clipPath></defs><path fill="#ffffff" d="M 48.742188 29.101562 C 48.953125 29.101562 49.160156 29.058594 49.355469 28.976562 C 49.554688 28.894531 49.726562 28.78125 49.878906 28.628906 C 50.027344 28.476562 50.144531 28.300781 50.226562 28.105469 C 50.308594 27.90625 50.347656 27.703125 50.347656 27.488281 L 50.347656 11.359375 C 50.347656 11.144531 50.308594 10.941406 50.226562 10.742188 C 50.144531 10.542969 50.027344 10.371094 49.878906 10.21875 C 49.726562 10.066406 49.554688 9.949219 49.355469 9.867188 C 49.160156 9.789062 48.953125 9.746094 48.742188 9.746094 C 48.527344 9.746094 48.324219 9.789062 48.125 9.867188 C 47.929688 9.949219 47.757812 10.066406 47.605469 10.21875 C 47.453125 10.371094 47.339844 10.542969 47.257812 10.742188 C 47.175781 10.941406 47.136719 11.144531 47.136719 11.359375 L 47.136719 27.488281 C 47.136719 27.703125 47.175781 27.90625 47.257812 28.105469 C 47.339844 28.300781 47.457031 28.476562 47.605469 28.628906 C 47.757812 28.777344 47.929688 28.894531 48.128906 28.976562 C 48.324219 29.058594 48.527344 29.101562 48.742188 29.101562 Z M 48.742188 29.101562 " fill-opacity="1" fill-rule="nonzero"/><path fill="#ffffff" d="M 26.246094 29.101562 C 26.457031 29.101562 26.664062 29.058594 26.859375 28.976562 C 27.054688 28.894531 27.230469 28.777344 27.378906 28.628906 C 27.53125 28.476562 27.648438 28.300781 27.730469 28.105469 C 27.8125 27.90625 27.851562 27.703125 27.851562 27.488281 L 27.851562 11.359375 C 27.851562 11.144531 27.8125 10.941406 27.730469 10.742188 C 27.648438 10.542969 27.53125 10.371094 27.382812 10.21875 C 27.230469 10.066406 27.058594 9.949219 26.859375 9.867188 C 26.664062 9.789062 26.457031 9.746094 26.246094 9.746094 C 26.03125 9.746094 25.828125 9.789062 25.628906 9.867188 C 25.433594 9.949219 25.257812 10.066406 25.109375 10.21875 C 24.957031 10.371094 24.84375 10.542969 24.761719 10.742188 C 24.679688 10.941406 24.636719 11.144531 24.636719 11.359375 L 24.636719 27.488281 C 24.636719 27.703125 24.679688 27.90625 24.761719 28.105469 C 24.84375 28.300781 24.957031 28.476562 25.109375 28.628906 C 25.257812 28.777344 25.433594 28.894531 25.628906 28.976562 C 25.828125 29.058594 26.03125 29.101562 26.246094 29.101562 Z M 26.246094 29.101562 " fill-opacity="1" fill-rule="nonzero"/><path fill="#ffffff" d="M 59.820312 22.777344 C 57.964844 19.53125 55.519531 16.820312 52.492188 14.640625 L 52.492188 27.488281 C 52.492188 27.988281 52.394531 28.46875 52.207031 28.929688 C 52.015625 29.390625 51.746094 29.796875 51.394531 30.148438 C 51.042969 30.503906 50.636719 30.773438 50.175781 30.964844 C 49.71875 31.15625 49.238281 31.25 48.742188 31.25 C 48.246094 31.25 47.765625 31.15625 47.308594 30.964844 C 46.847656 30.773438 46.441406 30.503906 46.089844 30.148438 C 45.738281 29.796875 45.46875 29.390625 45.277344 28.929688 C 45.085938 28.46875 44.992188 27.988281 44.992188 27.488281 L 44.992188 11.359375 C 44.992188 11.21875 45 11.082031 45.015625 10.941406 C 43.953125 10.621094 42.875 10.367188 41.777344 10.1875 L 41.777344 26.949219 C 41.777344 27.234375 41.75 27.511719 41.695312 27.789062 C 41.640625 28.066406 41.558594 28.335938 41.453125 28.597656 C 41.34375 28.855469 41.210938 29.105469 41.054688 29.339844 C 40.898438 29.574219 40.722656 29.792969 40.523438 29.992188 C 40.324219 30.191406 40.109375 30.371094 39.875 30.527344 C 39.640625 30.683594 39.394531 30.816406 39.132812 30.925781 C 38.875 31.03125 38.605469 31.113281 38.328125 31.167969 C 38.054688 31.222656 37.773438 31.25 37.492188 31.25 C 37.210938 31.25 36.933594 31.222656 36.65625 31.167969 C 36.382812 31.113281 36.113281 31.03125 35.851562 30.925781 C 35.59375 30.816406 35.347656 30.683594 35.113281 30.527344 C 34.878906 30.371094 34.664062 30.191406 34.464844 29.992188 C 34.265625 29.792969 34.085938 29.574219 33.929688 29.339844 C 33.773438 29.105469 33.640625 28.855469 33.535156 28.597656 C 33.425781 28.335938 33.34375 28.066406 33.289062 27.789062 C 33.234375 27.511719 33.207031 27.234375 33.207031 26.949219 L 33.207031 10.1875 C 32.113281 10.367188 31.035156 10.621094 29.972656 10.941406 C 29.988281 11.082031 29.996094 11.21875 29.996094 11.359375 L 29.996094 27.488281 C 29.996094 27.988281 29.898438 28.46875 29.707031 28.929688 C 29.519531 29.390625 29.246094 29.796875 28.894531 30.148438 C 28.542969 30.503906 28.140625 30.773438 27.679688 30.964844 C 27.21875 31.15625 26.742188 31.25 26.246094 31.25 C 25.746094 31.25 25.269531 31.15625 24.808594 30.964844 C 24.351562 30.773438 23.945312 30.503906 23.59375 30.148438 C 23.242188 29.796875 22.972656 29.390625 22.78125 28.929688 C 22.589844 28.46875 22.496094 27.988281 22.496094 27.488281 L 22.496094 14.640625 C 20.910156 15.777344 19.476562 17.078125 18.1875 18.542969 C 16.898438 20.007812 15.792969 21.597656 14.863281 23.316406 C 13.9375 25.035156 13.21875 26.839844 12.703125 28.722656 C 12.1875 30.605469 11.886719 32.523438 11.808594 34.476562 L 63.179688 34.476562 C 63.007812 30.304688 61.886719 26.402344 59.820312 22.777344 Z M 59.820312 22.777344 " fill-opacity="1" fill-rule="nonzero"/><g clip-path="url(#d5245219c8)"><path fill="#ffffff" d="M 37.492188 29.101562 C 37.777344 29.101562 38.050781 29.046875 38.3125 28.9375 C 38.574219 28.828125 38.808594 28.671875 39.007812 28.46875 C 39.207031 28.269531 39.363281 28.035156 39.472656 27.773438 C 39.582031 27.507812 39.636719 27.234375 39.636719 26.949219 L 39.636719 9.746094 C 39.636719 9.460938 39.582031 9.1875 39.472656 8.921875 C 39.363281 8.660156 39.210938 8.425781 39.007812 8.226562 C 38.808594 8.023438 38.574219 7.867188 38.3125 7.757812 C 38.050781 7.648438 37.777344 7.59375 37.492188 7.59375 C 37.210938 7.59375 36.9375 7.648438 36.671875 7.757812 C 36.410156 7.867188 36.179688 8.023438 35.976562 8.226562 C 35.777344 8.425781 35.621094 8.660156 35.515625 8.921875 C 35.40625 9.1875 35.351562 9.460938 35.351562 9.746094 L 35.351562 26.949219 C 35.351562 27.234375 35.40625 27.507812 35.515625 27.773438 C 35.625 28.035156 35.777344 28.269531 35.980469 28.46875 C 36.179688 28.671875 36.410156 28.828125 36.671875 28.9375 C 36.9375 29.046875 37.210938 29.101562 37.492188 29.101562 Z M 37.492188 29.101562 " fill-opacity="1" fill-rule="nonzero"/></g><g clip-path="url(#2c796c84a4)"><path fill="#ffffff" d="M 61.0625 44.054688 L 61.0625 42.003906 L 52.339844 42.003906 C 52.210938 42.894531 52.003906 43.761719 51.722656 44.613281 C 51.4375 45.464844 51.082031 46.285156 50.652344 47.074219 C 50.226562 47.859375 49.730469 48.605469 49.167969 49.304688 C 48.605469 50.003906 47.988281 50.644531 47.3125 51.234375 C 46.636719 51.820312 45.914062 52.34375 45.144531 52.800781 C 44.375 53.257812 43.570312 53.644531 42.734375 53.957031 C 41.894531 54.273438 41.035156 54.507812 40.15625 54.667969 C 39.273438 54.828125 38.386719 54.90625 37.492188 54.90625 C 36.597656 54.90625 35.710938 54.828125 34.832031 54.667969 C 33.949219 54.507812 33.09375 54.273438 32.253906 53.957031 C 31.414062 53.644531 30.613281 53.257812 29.84375 52.800781 C 29.074219 52.34375 28.351562 51.820312 27.675781 51.234375 C 27 50.644531 26.378906 50.003906 25.816406 49.304688 C 25.257812 48.605469 24.761719 47.859375 24.332031 47.074219 C 23.902344 46.285156 23.546875 45.464844 23.265625 44.613281 C 22.980469 43.761719 22.777344 42.894531 22.648438 42.003906 L 13.925781 42.003906 L 13.925781 44.054688 C 13.925781 44.375 13.808594 44.640625 13.570312 44.851562 L 9.847656 48.226562 L 12.046875 53.554688 L 19.035156 53.195312 C 19.351562 53.179688 19.625 53.28125 19.847656 53.507812 L 23.890625 57.566406 C 24.113281 57.789062 24.21875 58.0625 24.203125 58.378906 L 23.84375 65.394531 L 29.152344 67.601562 L 33.839844 62.386719 C 34.054688 62.152344 34.320312 62.03125 34.636719 62.03125 L 40.351562 62.03125 C 40.667969 62.03125 40.933594 62.152344 41.148438 62.386719 L 45.835938 67.601562 L 51.140625 65.394531 L 50.785156 58.378906 C 50.769531 58.0625 50.871094 57.789062 51.097656 57.566406 L 55.136719 53.507812 C 55.363281 53.28125 55.632812 53.179688 55.949219 53.195312 L 62.941406 53.554688 L 65.140625 48.226562 L 61.414062 44.855469 C 61.179688 44.640625 61.0625 44.375 61.0625 44.054688 Z M 24.617188 54.300781 L 23.101562 52.78125 L 24.617188 51.257812 L 26.128906 52.78125 Z M 38.566406 59.207031 L 36.421875 59.207031 L 36.421875 57.058594 L 38.566406 57.058594 Z M 50.371094 54.300781 L 48.855469 52.78125 L 50.371094 51.257812 L 51.886719 52.78125 Z M 50.371094 54.300781 " fill-opacity="1" fill-rule="nonzero"/></g><g clip-path="url(#87c916440e)"><path fill="#ffffff" d="M 65.882812 36.628906 L 9.105469 36.628906 C 8.890625 36.628906 8.6875 36.667969 8.488281 36.75 C 8.292969 36.832031 8.117188 36.949219 7.96875 37.101562 C 7.816406 37.25 7.703125 37.425781 7.621094 37.625 C 7.539062 37.820312 7.496094 38.027344 7.496094 38.242188 C 7.496094 38.453125 7.539062 38.660156 7.621094 38.859375 C 7.703125 39.054688 7.816406 39.230469 7.96875 39.382812 C 8.117188 39.53125 8.292969 39.648438 8.488281 39.730469 C 8.6875 39.8125 8.890625 39.855469 9.105469 39.855469 L 65.882812 39.855469 C 66.09375 39.855469 66.300781 39.8125 66.496094 39.730469 C 66.695312 39.648438 66.867188 39.53125 67.019531 39.382812 C 67.167969 39.230469 67.285156 39.054688 67.367188 38.859375 C 67.449219 38.660156 67.488281 38.453125 67.488281 38.242188 C 67.488281 38.027344 67.449219 37.820312 67.367188 37.625 C 67.285156 37.425781 67.167969 37.25 67.019531 37.101562 C 66.867188 36.949219 66.695312 36.832031 66.496094 36.75 C 66.300781 36.667969 66.09375 36.628906 65.882812 36.628906 Z M 65.882812 36.628906 " fill-opacity="1" fill-rule="nonzero"/></g></svg>