<svg xmlns="http://www.w3.org/2000/svg" xmlns:xlink="http://www.w3.org/1999/xlink" width="100" zoomAndPan="magnify" viewBox="0 0 75 74.999997" height="100" preserveAspectRatio="xMidYMid meet" version="1.0"><defs><clipPath id="541c8cbac7"><path d="M 14.910156 34 L 59.910156 34 L 59.910156 64.058594 L 14.910156 64.058594 Z M 14.910156 34 " clip-rule="nonzero"/></clipPath><clipPath id="1618778336"><path d="M 26 10.808594 L 48 10.808594 L 48 32 L 26 32 Z M 26 10.808594 " clip-rule="nonzero"/></clipPath><clipPath id="1dbeefff13"><path d="M 14.910156 34 L 59.910156 34 L 59.910156 64.058594 L 14.910156 64.058594 Z M 14.910156 34 " clip-rule="nonzero"/></clipPath></defs><g clip-path="url(#541c8cbac7)"><path fill="#ffffff" d="M 59.914062 57.277344 C 59.914062 57.714844 59.898438 58.148438 59.875 58.578125 C 54.210938 61.949219 46.351562 64.035156 37.660156 64.035156 C 28.707031 64.035156 20.628906 61.816406 14.929688 58.265625 C 14.917969 57.9375 14.910156 57.605469 14.910156 57.277344 C 14.910156 44.832031 24.984375 34.742188 37.410156 34.742188 C 49.839844 34.742188 59.914062 44.832031 59.914062 57.277344 " fill-opacity="1" fill-rule="nonzero"/></g><g clip-path="url(#1618778336)"><path fill="#ffffff" d="M 47.921875 21.34375 C 47.921875 23.261719 47.40625 25.058594 46.511719 26.605469 C 44.695312 29.753906 41.300781 31.867188 37.410156 31.867188 C 33.554688 31.867188 30.183594 29.789062 28.355469 26.6875 C 27.433594 25.121094 26.902344 23.296875 26.902344 21.34375 C 26.902344 15.53125 31.609375 10.820312 37.410156 10.820312 C 43.214844 10.820312 47.921875 15.53125 47.921875 21.34375 " fill-opacity="1" fill-rule="nonzero"/></g><g clip-path="url(#1dbeefff13)"><path fill="#ffffff" d="M 59.914062 57.277344 C 59.914062 57.714844 59.898438 58.148438 59.875 58.578125 C 54.210938 61.949219 46.351562 64.035156 37.660156 64.035156 C 28.707031 64.035156 20.628906 61.816406 14.929688 58.265625 C 14.917969 57.9375 14.910156 57.605469 14.910156 57.277344 C 14.910156 44.832031 24.984375 34.742188 37.410156 34.742188 C 49.839844 34.742188 59.914062 44.832031 59.914062 57.277344 " fill-opacity="1" fill-rule="nonzero"/></g></svg>